<?xml version="1.0" encoding="iso-8859-1"?>
<!-- Generator: Adobe Illustrator 19.0.0, SVG Export Plug-In . SVG Version: 6.00 Build 0)  -->
<svg version="1.1" id="Capa_1" xmlns="http://www.w3.org/2000/svg" xmlns:xlink="http://www.w3.org/1999/xlink" x="0px" y="0px"
	 viewBox="0 0 479.997 479.997" style="enable-background:new 0 0 479.997 479.997;" xml:space="preserve">
<g>
	<g>
		<g>
			<path d="M478.84,363.86c-0.67-1.114-1.602-2.047-2.714-2.72l-11.195-6.717c-13.649-8.162-29.857-10.927-45.44-7.752
				c13.258-8.775,22.761-22.184,26.648-37.6l3.16-12.656c1.072-4.286-1.533-8.63-5.819-9.702c-1.273-0.318-2.604-0.319-3.877-0.002
				l-12.656,3.2c-15.418,3.882-28.829,13.386-37.6,26.648c3.171-15.584,0.403-31.791-7.76-45.44l-6.712-11.2
				c-2.603-3.786-7.783-4.746-11.57-2.142c-0.839,0.577-1.565,1.303-2.142,2.142l-6.712,11.2
				c-8.163,13.649-10.931,29.856-7.76,45.44c-8.771-13.262-22.182-22.766-37.6-26.648l-2.888-0.72l163.464-163.536
				c3.123-3.124,3.123-8.188,0-11.312l-32-32c-3.124-3.123-8.188-3.123-11.312,0l-352,352c-3.123,3.124-3.123,8.188,0,11.312l32,32
				c3.124,3.123,8.188,3.123,11.312,0l171.488-171.488l0.72,2.888c3.883,15.416,13.384,28.825,26.64,37.6
				c-15.581-3.17-31.784-0.405-45.432,7.752l-11.2,6.72c-3.786,2.277-5.01,7.192-2.733,10.979c0.674,1.121,1.613,2.06,2.733,2.734
				l11.2,6.72c13.591,8.327,29.865,11.103,45.448,7.752c-13.264,8.77-22.771,22.181-26.656,37.6l-3.16,12.656
				c-1.072,4.286,1.533,8.63,5.819,9.702c1.273,0.318,2.604,0.319,3.877,0.002l12.656-3.2c15.418-3.882,28.829-13.386,37.6-26.648
				c-3.171,15.584-0.403,31.791,7.76,45.44l6.712,11.2c2.277,3.786,7.192,5.01,10.979,2.734c1.121-0.674,2.06-1.613,2.734-2.734
				l6.712-11.2c8.163-13.649,10.931-29.856,7.76-45.44c8.771,13.262,22.182,22.766,37.6,26.648l12.656,3.2
				c4.287,1.069,8.629-1.54,9.698-5.827c0.317-1.273,0.317-2.604-0.002-3.877l-3.16-12.656c-3.885-15.417-13.389-28.827-26.648-37.6
				c15.58,3.351,31.852,0.575,45.44-7.752l11.2-6.72C479.893,372.562,481.116,367.646,478.84,363.86z M430.546,305.454v0.032
				c-4.343,16.949-17.584,30.181-34.536,34.512C400.347,323.039,413.588,309.795,430.546,305.454z M368.01,279.55
				c8.936,15.074,8.936,33.822,0,48.896C359.074,313.372,359.074,294.624,368.01,279.55z M112.01,460.686l-20.688-20.688
				L432.01,99.31l20.688,20.688L112.01,460.686z M305.474,305.454c16.961,4.336,30.203,17.582,34.536,34.544
				C323.049,335.662,309.807,322.416,305.474,305.454z M279.554,367.998c15.077-8.944,33.835-8.944,48.912,0
				C313.389,376.942,294.632,376.942,279.554,367.998z M305.474,430.542c4.339-16.972,17.6-30.22,34.576-34.544
				C335.706,412.968,322.448,426.214,305.474,430.542z M368.01,456.446c-8.936-15.074-8.936-33.822,0-48.896
				C376.946,422.624,376.946,441.372,368.01,456.446z M385.157,372.121c0.674,1.121,1.613,2.059,2.734,2.733l7.408,4.448
				l-8.376-2.096c-4.286-1.073-8.631,1.531-9.704,5.817c-0.32,1.276-0.32,2.611,0,3.887l2.096,8.384l-4.448-7.416
				c-2.603-3.786-7.783-4.746-11.57-2.142c-0.839,0.577-1.565,1.303-2.142,2.142l-4.448,7.416l2.096-8.384
				c1.073-4.286-1.531-8.631-5.817-9.704c-1.276-0.32-2.611-0.32-3.887,0l-8.376,2.096l7.408-4.448
				c3.786-2.277,5.01-7.192,2.734-10.979c-0.674-1.121-1.613-2.059-2.734-2.733l-7.408-4.448l8.376,2.096
				c0.636,0.159,1.289,0.239,1.944,0.24c4.418,0,8-3.582,8-8c0-0.655-0.081-1.308-0.24-1.944l-2.096-8.384l4.448,7.416
				c2.277,3.786,7.192,5.01,10.979,2.734c1.121-0.674,2.059-1.613,2.733-2.734l4.448-7.416l-2.096,8.384
				c-1.074,4.286,1.53,8.631,5.816,9.704c0.636,0.159,1.289,0.24,1.944,0.24c0.655-0.001,1.308-0.081,1.944-0.24l8.376-2.096
				l-7.408,4.448C384.104,363.419,382.88,368.334,385.157,372.121z M430.546,430.542c-16.961-4.336-30.203-17.582-34.536-34.544
				C412.971,400.335,426.214,413.581,430.546,430.542z M407.554,367.998c15.077-8.944,33.835-8.944,48.912,0
				C441.389,376.942,422.632,376.942,407.554,367.998z"/>
			<path d="M476.106,361.126c0.007,0.004,0.012,0.009,0.019,0.013l0.005,0.003L476.106,361.126z"/>
		</g>
	</g>
</g>
<g>
	<g>
		<path d="M254.808,187.876c-0.674-1.121-1.613-2.059-2.734-2.733l-11.2-6.72c-13.649-8.162-29.857-10.927-45.44-7.752
			c13.258-8.775,22.761-22.184,26.648-37.6l3.16-12.656c1.072-4.286-1.533-8.63-5.819-9.702c-1.273-0.318-2.604-0.319-3.877-0.002
			l-12.656,3.2c-15.418,3.882-28.829,13.386-37.6,26.648c3.171-15.584,0.403-31.791-7.76-45.44l-6.712-11.2
			c-2.603-3.786-7.783-4.746-11.57-2.142c-0.839,0.577-1.565,1.303-2.142,2.142l-6.712,11.2c-8.163,13.649-10.931,29.856-7.76,45.44
			c-8.771-13.262-22.182-22.766-37.6-26.648l-12.656-3.2c-4.292-1.048-8.621,1.583-9.669,5.875
			c-0.306,1.253-0.304,2.561,0.005,3.813l3.2,12.656c3.883,15.416,13.384,28.825,26.64,37.6c-15.581-3.17-31.784-0.405-45.432,7.752
			l-11.2,6.72c-3.786,2.277-5.01,7.192-2.733,10.979c0.674,1.121,1.613,2.06,2.733,2.734l-0.032,0.016l11.2,6.72
			c13.591,8.327,29.865,11.103,45.448,7.752c-13.264,8.77-22.771,22.181-26.656,37.6l-3.2,12.656
			c-1.072,4.286,1.533,8.63,5.819,9.702c1.273,0.318,2.604,0.319,3.877,0.002l12.656-3.2c15.418-3.882,28.829-13.386,37.6-26.648
			c-3.171,15.584-0.403,31.791,7.76,45.44l6.712,11.2c2.277,3.786,7.192,5.01,10.979,2.733c1.121-0.674,2.059-1.613,2.733-2.733
			l6.712-11.2c8.163-13.649,10.931-29.856,7.76-45.44c8.771,13.262,22.182,22.766,37.6,26.648l12.656,3.2
			c4.287,1.069,8.629-1.54,9.698-5.827c0.317-1.273,0.317-2.604-0.002-3.877l-3.16-12.656c-3.885-15.417-13.389-28.827-26.648-37.6
			c15.58,3.351,31.852,0.575,45.44-7.752l11.2-6.72C255.861,196.577,257.084,191.662,254.808,187.876z M206.546,129.454
			c-4.333,16.962-17.575,30.208-34.536,34.544C176.347,147.039,189.588,133.795,206.546,129.454z M144.01,103.55
			c8.936,15.074,8.936,33.822,0,48.896C135.074,137.372,135.074,118.624,144.01,103.55z M81.474,129.454
			c16.961,4.336,30.203,17.582,34.536,34.544C99.049,159.662,85.807,146.416,81.474,129.454z M55.554,191.998
			c15.077-8.944,33.835-8.944,48.912,0C89.389,200.942,70.632,200.942,55.554,191.998z M81.491,254.537
			c4.338-16.966,17.59-30.211,34.559-34.539C111.707,236.962,98.456,250.204,81.491,254.537z M144.01,280.446
			c-8.936-15.074-8.936-33.822,0-48.896C152.946,246.624,152.946,265.372,144.01,280.446z M161.157,196.121
			c0.674,1.121,1.613,2.06,2.733,2.734l7.408,4.448l-8.376-2.096c-4.286-1.073-8.63,1.531-9.704,5.817
			c-0.32,1.276-0.32,2.611,0,3.887l2.096,8.384l-4.448-7.416c-2.603-3.786-7.783-4.746-11.57-2.142
			c-0.839,0.577-1.565,1.303-2.142,2.142l-4.448,7.416l2.096-8.384c1.073-4.286-1.531-8.63-5.817-9.704
			c-1.276-0.32-2.611-0.32-3.887,0l-8.376,2.096l7.408-4.448c3.786-2.277,5.01-7.192,2.733-10.979
			c-0.674-1.121-1.613-2.059-2.733-2.733l-7.408-4.448l8.376,2.096c0.636,0.159,1.289,0.239,1.944,0.24c4.418,0,8-3.582,8-8
			c0-0.655-0.081-1.308-0.24-1.944l-2.096-8.384l4.448,7.416c1.446,2.407,4.048,3.879,6.856,3.88c2.808-0.001,5.41-1.473,6.856-3.88
			l4.448-7.416l-2.096,8.384c-1.074,4.286,1.53,8.631,5.816,9.704c0.636,0.159,1.288,0.24,1.944,0.24
			c0.655-0.001,1.308-0.081,1.944-0.24l8.376-2.096l-7.408,4.448C160.104,187.419,158.88,192.334,161.157,196.121z M206.546,254.542
			c-16.961-4.336-30.203-17.582-34.536-34.544C188.971,224.335,202.214,237.581,206.546,254.542z M183.554,191.998
			c15.077-8.944,33.835-8.944,48.912,0C217.389,200.942,198.632,200.942,183.554,191.998z"/>
	</g>
</g>
<g>
	<g>
		<path d="M413.666,34.342l-32-32c-3.124-3.123-8.188-3.123-11.312,0l-144,144l11.312,11.312L376.01,19.31l20.688,20.688
			L274.354,162.342l11.312,11.312l128-128C416.789,42.53,416.789,37.466,413.666,34.342z"/>
	</g>
</g>
<g>
	<g>
		<path d="M122.354,314.342L40.01,396.686l-20.688-20.688l74.344-74.344l-11.312-11.312l-80,80c-3.123,3.124-3.123,8.188,0,11.312
			l32,32c3.124,3.123,8.188,3.123,11.312,0l88-88L122.354,314.342z"/>
	</g>
</g>
<g>
</g>
<g>
</g>
<g>
</g>
<g>
</g>
<g>
</g>
<g>
</g>
<g>
</g>
<g>
</g>
<g>
</g>
<g>
</g>
<g>
</g>
<g>
</g>
<g>
</g>
<g>
</g>
<g>
</g>
</svg>
